<svg xmlns="http://www.w3.org/2000/svg" viewBox="0 0 275.04 55.76"><defs><style>.a{fill:#fff;}</style></defs><path class="a" d="M61.78,48.72l.11,0Z"/><path class="a" d="M48.85,0V.5a8.28,8.28,0,0,1,7.92,8s0,31.69,0,31.69c0,4.62.48,7.67,5,8.57,0,0,1.24.22,1.52.3a71.3,71.3,0,0,1,19.23,6.71c1.15-3.63,1.74-10.45,1.74-14.49,0,0,0-32.78,0-32.78,0-4.62,3.82-7.89,8.35-8V0Z"/><path class="a" d="M48.68,47.38C37.4,46.67,36,40.24,35.85,37.93c0,0,0-29.47,0-29.47a8.22,8.22,0,0,1,7.92-8V0H0V.48a8.22,8.22,0,0,1,8.35,8s0,32.78,0,32.78c0,4,.6,10.89,1.76,14.52,9.91-5.26,22.51-8.41,36.22-8.41C47.14,47.35,47.91,47.36,48.68,47.38Z"/><path class="a" d="M156.58,10.07l-3,0c-1.51.08-2.7.11-3.52.11-1,0-2.3,0-3.92-.11l-3.09,0c-.14,0-.46.06-.46.66s.32.67.46.67A5.36,5.36,0,0,1,147.24,13a6.51,6.51,0,0,1,1.49,4.53V33.18c0,3.39-1,6-2.92,7.84s-4.68,2.74-8.13,2.74-6.38-1-8.32-3.09-2.93-5.29-2.93-9.62V15a6.41,6.41,0,0,1,.32-2.35,1.76,1.76,0,0,1,1.1-1,9,9,0,0,1,2.81-.32c.09,0,.53,0,.53-.67s-.44-.66-.53-.66l-3.29,0c-1.94.08-3.58.11-4.88.11s-2.74,0-4.69-.11l-3.41,0c-.09,0-.53,0-.53.66s.44.67.53.67a10.05,10.05,0,0,1,2.82.29,1.72,1.72,0,0,1,1.09.92,6.19,6.19,0,0,1,.32,2.32V33a12.37,12.37,0,0,0,2.15,7.21,13.51,13.51,0,0,0,5.9,4.68,21.71,21.71,0,0,0,8.56,1.6,21.07,21.07,0,0,0,8.53-1.63,13.13,13.13,0,0,0,5.77-4.68,12.42,12.42,0,0,0,2.05-7.07V17.56A7.07,7.07,0,0,1,152.92,13a4.46,4.46,0,0,1,3.67-1.61c.14,0,.46-.06.46-.67S156.73,10.07,156.58,10.07Z"/><path class="a" d="M196.9,20.31l-.05-.45c-.17-1.48-.32-3-.53-5.38-.1-1.14-.27-3.54-.28-3.77-.07-1-.18-1.25-.52-1.39s-1.12.21-2,.44a15.67,15.67,0,0,1-3.46.31c-1.81,0-6.69,0-11.69,0s-9.87,0-11.68,0a15.67,15.67,0,0,1-3.46-.31c-.92-.23-1.6-.63-2-.44s-.45.36-.52,1.39c0,.23-.18,2.63-.28,3.77-.21,2.36-.36,3.9-.53,5.38l0,.45c0,.14,0,.47.62.52s.67-.2.73-.35l.1-.25c2.16-5.62,5.66-8.21,10.59-8.21a2.94,2.94,0,0,1,2.13.55c.31.37.5.89.5,2.36V40.85a5.4,5.4,0,0,1-.38,2.33,1.91,1.91,0,0,1-1.33.93,15.84,15.84,0,0,1-3.36.27c-.09,0-.53,0-.53.66s.44.67.53.67c1.61,0,2.84,0,3.73-.05h10.47c.89,0,2.12.05,3.73.05.09,0,.53,0,.53-.67s-.44-.66-.53-.66a15.84,15.84,0,0,1-3.36-.27,1.91,1.91,0,0,1-1.33-.93,5.4,5.4,0,0,1-.38-2.33V14.93c0-1.47.19-2,.5-2.36a2.94,2.94,0,0,1,2.13-.55c4.93,0,8.43,2.59,10.59,8.21l.1.25c.06.15.23.4.73.35S196.91,20.45,196.9,20.31Z"/><path class="a" d="M231.59,36.16a1.06,1.06,0,0,0-.5-.12c-.44,0-.55.22-.58.35a10.2,10.2,0,0,1-4.29,5.34,15.4,15.4,0,0,1-7.87,1.75h-2.12a2.63,2.63,0,0,1-2-.67,3.24,3.24,0,0,1-.62-2.19V28.31h4.94a10.43,10.43,0,0,1,5.64,1.26,3.76,3.76,0,0,1,1.88,3.33c0,.29.24.44.72.44s.72-.15.72-.44c0-.75-.2-5.71-.2-5.71l.07-5c0-.12-.05-.5-.69-.5s-.69.38-.69.5A3.12,3.12,0,0,1,224.17,25a11.69,11.69,0,0,1-5.56,1.07h-5V15a2.35,2.35,0,0,1,.78-2,4.14,4.14,0,0,1,2.62-.66h1.93a11.45,11.45,0,0,1,6.25,1.52,8.2,8.2,0,0,1,3.34,4.65c.06.16.25.41.78.32.16,0,.64-.1.64-.5l-.13-7.44c0-.19-.07-.83-1-.83H201.56c-.09,0-.53,0-.53.66s.44.67.53.67a10.48,10.48,0,0,1,2.86.29,1.61,1.61,0,0,1,1.08.9,7,7,0,0,1,.29,2.34V40.85a6.83,6.83,0,0,1-.3,2.36,1.47,1.47,0,0,1-1,.9,10.93,10.93,0,0,1-2.89.27c-.09,0-.53,0-.53.66s.44.67.53.67H230a1.37,1.37,0,0,0,1-.29,1.23,1.23,0,0,0,.29-.88,52.83,52.83,0,0,1,.63-7.81v-.14C231.93,36.34,231.69,36.21,231.59,36.16Z"/><path class="a" d="M274.4,34.75c-.54-.08-.72.22-.77.37a20.79,20.79,0,0,1-5.72,7.11,11.9,11.9,0,0,1-7.17,2.31,12.74,12.74,0,0,1-7.62-2.42,16.23,16.23,0,0,1-5.23-6.61A22.61,22.61,0,0,1,246,26.24c0-4.49,1.14-8.11,3.4-10.76s5.46-4,9.59-4a14.9,14.9,0,0,1,8.31,2.36A16.63,16.63,0,0,1,273,20.54a.61.61,0,0,0,.76.37c.54-.09.59-.41.59-.58,0,0-.75-7.55-.78-7.82a2.91,2.91,0,0,0-.33-1,1.53,1.53,0,0,0-.9-.55,27.73,27.73,0,0,0-4.9-1.11,44.65,44.65,0,0,0-6-.42,31.5,31.5,0,0,0-11.93,2.26,21.88,21.88,0,0,0-9,6.43,14.87,14.87,0,0,0-3.39,9.61,17.23,17.23,0,0,0,2.52,8.87,19,19,0,0,0,7.89,7,28.89,28.89,0,0,0,13.28,2.75,38.43,38.43,0,0,0,11.89-1.87,2,2,0,0,0,.88-.52,2.59,2.59,0,0,0,.36-1l.95-7.5,0-.16C275,35.14,275,34.84,274.4,34.75Z"/></svg>